<?xml version="1.0" standalone="no"?>
<!DOCTYPE svg PUBLIC "-//W3C//DTD SVG 20010904//EN"
 "http://www.w3.org/TR/2001/REC-SVG-20010904/DTD/svg10.dtd">
<svg version="1.0" xmlns="http://www.w3.org/2000/svg"
 width="600.000000pt" height="600.000000pt" viewBox="0 0 600.000000 600.000000"
 preserveAspectRatio="xMidYMid meet">

<g transform="translate(0.000000,600.000000) scale(0.100000,-0.100000)"
fill="#000000" stroke="none">
<path d="M2824 5970 c-6 -6 -33 -10 -60 -10 -27 0 -70 1 -96 1 -46 1 -129 -28
-142 -50 -4 -6 -24 -11 -45 -11 -20 0 -42 -5 -49 -12 -6 -6 -33 -12 -59 -13
-34 -1 -66 -12 -108 -36 -33 -19 -73 -39 -90 -45 -105 -36 -345 -280 -345
-349 0 -8 -11 -26 -25 -41 -14 -15 -39 -56 -56 -90 -16 -35 -34 -66 -39 -69
-12 -7 -19 -64 -24 -202 -4 -83 -10 -122 -24 -150 -35 -70 -45 -152 -38 -300
11 -227 52 -531 86 -633 31 -95 52 -171 47 -176 -3 -3 -23 4 -45 15 -35 18
-72 20 -72 4 0 -9 45 -42 59 -43 11 0 11 3 1 15 -7 8 -9 15 -5 15 12 0 44 -45
45 -63 0 -11 10 -20 29 -23 31 -7 41 -25 41 -80 0 -65 -11 -91 -45 -107 -57
-27 -85 -74 -86 -146 -1 -50 3 -68 20 -91 11 -16 21 -34 21 -40 0 -6 11 -8 28
-4 36 9 38 12 24 34 -7 11 -12 42 -12 68 0 59 19 120 31 101 10 -16 5 -222 -6
-239 -5 -8 -2 -18 7 -24 15 -11 41 -150 40 -216 -1 -39 -32 -69 -72 -70 -21
-1 -22 -2 -9 -10 12 -7 29 -5 54 6 21 8 41 12 45 7 12 -14 30 -89 30 -126 0
-36 21 -118 46 -175 8 -18 14 -39 14 -48 0 -18 46 -109 75 -149 48 -64 58
-139 71 -488 5 -147 4 -166 -9 -161 -8 3 -51 -6 -94 -20 -43 -14 -109 -34
-148 -46 -38 -11 -83 -29 -100 -40 -16 -11 -43 -20 -60 -20 -16 0 -41 -6 -55
-14 -14 -7 -56 -30 -95 -51 -38 -20 -92 -54 -120 -74 -50 -38 -106 -71 -200
-121 -27 -14 -61 -34 -75 -43 -14 -8 -49 -25 -78 -36 -30 -12 -79 -38 -110
-59 -69 -46 -88 -56 -316 -167 -99 -48 -204 -106 -234 -128 -126 -96 -219
-157 -317 -207 l-70 -35 -3 -343 -2 -342 3000 0 3000 0 0 543 0 543 -52 21
c-29 11 -73 26 -98 33 -25 6 -58 18 -75 25 -16 8 -58 23 -91 34 -34 10 -88 33
-120 50 -33 17 -66 31 -74 31 -35 0 -378 109 -535 170 -44 17 -109 42 -145 55
-36 13 -79 31 -95 39 -17 8 -89 32 -160 52 -72 20 -147 45 -168 56 -32 16
-114 48 -290 114 -22 8 -56 23 -78 34 -21 11 -47 20 -57 20 -10 0 -45 9 -77
20 -32 11 -71 20 -87 20 -23 0 -28 -4 -28 -24 0 -40 11 -56 52 -77 22 -11 38
-23 35 -25 -7 -8 -81 32 -97 51 -20 24 -22 477 -2 496 6 7 12 21 12 30 0 10
11 30 24 46 38 46 108 225 136 353 15 65 40 130 51 130 4 0 11 -4 14 -10 3 -5
11 -10 17 -10 6 0 4 8 -5 18 -10 10 -17 33 -17 50 0 32 34 183 45 201 3 6 8
72 11 148 3 76 7 139 8 140 2 2 14 -14 27 -35 14 -22 34 -38 47 -40 23 -3 23
-3 8 27 -9 16 -16 39 -16 50 0 24 -44 56 -61 46 -8 -6 -10 18 -8 89 4 96 14
121 44 110 6 -3 21 6 34 20 13 13 43 30 67 37 24 8 44 17 44 21 0 13 -38 9
-77 -7 -20 -8 -38 -13 -41 -11 -5 6 56 163 75 191 7 11 13 33 13 50 0 16 10
64 21 105 12 41 25 93 30 115 6 21 15 45 20 51 10 12 24 85 36 187 6 55 -12
156 -38 208 -10 20 -19 58 -21 85 -1 27 -6 54 -10 60 -5 7 -8 16 -7 20 4 17
-13 44 -27 44 -23 0 -16 18 9 22 19 3 22 8 19 43 -2 22 -12 58 -22 80 -10 22
-23 56 -28 75 -6 19 -20 69 -32 110 -12 41 -28 99 -36 128 -8 29 -23 70 -34
92 -11 22 -20 53 -20 70 0 21 -4 30 -12 28 -7 -3 -35 16 -62 41 -65 61 -73 70
-99 111 -30 46 -108 96 -163 105 -25 3 -57 17 -75 32 -19 16 -50 29 -82 34
-38 6 -58 15 -73 35 -14 17 -26 24 -34 19 -8 -5 -11 -4 -7 2 4 7 -31 10 -103
9 -124 -1 -136 4 -119 53 6 17 9 35 5 38 -3 3 -28 -4 -56 -15 -41 -17 -56 -19
-78 -11 -15 6 -54 13 -86 15 -35 3 -73 13 -92 25 -17 10 -39 16 -48 13 -9 -4
-25 1 -35 10 -12 11 -21 12 -27 6z m606 -165 c-7 -8 -16 -12 -21 -9 -16 9 -10
20 12 21 17 2 18 -1 9 -12z m-190 -897 c0 -6 -7 -20 -17 -30 -9 -10 -13 -21
-9 -26 4 -4 16 4 27 17 11 13 22 21 26 18 3 -4 0 -13 -7 -22 -23 -28 -1 -29
26 -2 41 41 56 36 51 -17 -3 -41 -2 -44 15 -35 10 5 18 16 18 23 0 19 27 39
56 42 13 1 24 0 24 -2 0 -15 -23 -44 -35 -44 -7 0 -17 -4 -20 -10 -14 -22 26
-8 59 20 19 17 37 26 40 21 3 -5 0 -11 -6 -14 -7 -2 -10 -8 -6 -12 4 -4 14 -3
21 3 10 9 22 8 45 0 26 -10 37 -10 55 1 20 13 21 13 9 -2 -19 -23 5 -33 28
-12 18 16 20 16 45 -9 19 -19 36 -26 64 -26 24 0 52 -9 74 -24 19 -13 44 -27
56 -31 21 -6 29 -25 11 -25 -5 0 -10 -13 -10 -30 0 -32 14 -40 24 -14 5 13 9
14 22 4 8 -7 12 -20 9 -28 -3 -10 0 -12 10 -8 18 6 20 -5 4 -21 -12 -12 -4
-33 11 -33 5 0 7 7 3 16 -4 12 -2 15 8 12 8 -3 15 -22 17 -49 2 -24 7 -46 11
-49 10 -6 20 -60 12 -60 -4 0 -11 4 -16 10 -12 11 -12 -40 -1 -58 4 -7 2 -12
-3 -12 -7 0 -9 -19 -6 -50 3 -28 0 -52 -6 -55 -7 -5 -6 -11 2 -21 9 -11 9 -21
-1 -43 -9 -22 -9 -34 0 -50 6 -12 8 -26 4 -32 -4 -6 0 -15 7 -20 12 -8 12 -10
0 -18 -8 -5 -21 -6 -30 -3 -13 5 -13 3 1 -12 10 -9 22 -14 28 -11 5 3 10 -1
10 -9 0 -9 -8 -16 -17 -17 -12 -1 -10 -3 6 -8 14 -4 26 -12 29 -19 2 -7 -2
-10 -12 -6 -12 5 -16 0 -16 -20 0 -14 4 -26 9 -26 4 0 11 -17 14 -37 5 -30 2
-42 -15 -60 -17 -19 -19 -23 -6 -23 14 0 15 -5 6 -37 -7 -25 -8 -80 -2 -158
12 -176 11 -354 -3 -400 -6 -22 -16 -66 -22 -98 -5 -32 -17 -72 -26 -89 -8
-17 -15 -46 -15 -65 0 -18 -4 -33 -8 -33 -4 0 -13 -14 -20 -32 -10 -27 -9 -36
4 -57 10 -15 11 -21 3 -13 -18 16 -29 15 -29 -3 0 -8 -4 -15 -10 -15 -5 0 -10
-7 -10 -15 0 -8 -4 -15 -10 -15 -5 0 -10 -4 -10 -10 0 -5 7 -10 15 -10 10 0
15 -10 15 -29 0 -16 3 -37 7 -47 4 -12 2 -15 -8 -12 -8 3 -14 13 -14 23 0 10
-5 20 -11 22 -16 5 -27 -29 -13 -38 7 -4 9 -15 5 -24 -4 -11 0 -25 9 -35 15
-16 14 -22 -11 -66 -15 -27 -31 -52 -37 -55 -5 -4 -6 -12 -2 -18 4 -7 4 -19 1
-27 -5 -14 -8 -14 -22 0 -17 18 -44 21 -44 6 0 -5 6 -10 14 -10 18 0 30 -30
16 -44 -5 -5 -10 -19 -10 -30 -1 -19 -2 -19 -13 -4 -10 12 -17 14 -30 6 -15
-8 -16 -13 -6 -24 6 -8 9 -18 5 -21 -4 -4 -11 -1 -17 7 -8 13 -10 13 -19 0 -5
-8 -8 -19 -6 -25 18 -47 17 -48 -12 -17 -17 17 -33 32 -36 32 -12 0 -5 -17 15
-39 22 -23 19 -51 -5 -51 -7 0 -16 7 -20 15 -3 8 -12 15 -21 15 -20 0 -19 -10
2 -26 24 -17 8 -32 -17 -16 -26 16 -30 15 -30 -7 0 -10 -7 -22 -16 -25 -11 -4
-13 -13 -8 -28 6 -21 5 -21 -19 5 -29 30 -53 36 -43 10 6 -15 4 -14 -14 2 -15
13 -23 16 -31 8 -6 -6 -17 -9 -23 -7 -8 3 -10 -11 -7 -43 3 -42 1 -46 -12 -35
-18 16 -30 2 -20 -25 6 -16 5 -16 -10 -4 -15 12 -17 11 -17 -6 0 -12 -18 -33
-45 -52 -34 -24 -45 -28 -45 -17 0 20 -17 20 -52 2 -26 -14 -28 -14 -28 6 0
17 -3 18 -15 8 -12 -10 -16 -9 -20 3 -4 10 -18 13 -46 11 -27 -2 -46 2 -56 11
-10 11 -25 14 -48 9 -25 -4 -34 -2 -39 12 -6 16 -7 16 -26 -1 -21 -19 -45 -11
-36 12 10 26 -17 8 -34 -22 -18 -33 -40 -44 -40 -21 0 20 -14 21 -30 1 -17
-20 -31 -19 -23 1 5 13 3 15 -13 6 -14 -7 -24 -6 -39 4 -25 18 -39 18 -31 -1
5 -13 2 -14 -15 -5 -11 6 -33 8 -50 5 -18 -4 -29 -3 -29 4 0 6 -6 8 -13 5 -15
-5 -44 23 -33 33 3 3 -3 13 -15 21 -11 8 -24 25 -29 38 -11 28 -30 32 -30 7 0
-15 -2 -16 -10 -3 -6 10 -6 16 0 18 14 5 12 28 -4 41 -8 7 -12 21 -9 32 4 15
0 22 -15 26 -23 6 -25 34 -4 55 29 29 -7 39 -42 13 -28 -21 -31 -20 -63 30
-16 26 -36 45 -46 45 -14 0 -17 5 -12 20 5 15 3 18 -9 14 -9 -3 -16 -1 -16 5
0 6 -7 11 -15 11 -18 0 -18 -1 -5 -34 6 -16 6 -26 0 -26 -14 0 -32 39 -26 56
3 8 -1 14 -11 14 -13 0 -13 3 -3 15 16 20 36 19 44 -1 11 -29 19 -6 20 55 1
54 -1 60 -19 58 -15 -2 -19 3 -17 20 2 12 -2 24 -8 28 -5 3 -10 1 -10 -4 0 -6
-9 -11 -20 -11 -11 0 -20 -3 -20 -8 0 -4 -10 -12 -22 -17 -18 -8 -28 -5 -47
13 -21 19 -26 34 -27 85 -2 55 -5 62 -22 60 -34 -4 -44 20 -28 66 14 41 10 51
-12 29 -9 -9 -12 -8 -12 5 0 9 7 17 15 17 8 0 15 5 15 10 0 6 -4 10 -10 10 -5
0 -10 7 -10 15 0 25 -23 65 -37 65 -7 0 -13 2 -13 4 0 2 -3 12 -6 20 -5 12 -2
15 10 10 12 -4 16 0 16 15 0 22 -19 30 -21 9 -1 -16 -35 140 -54 242 -10 54
-11 77 -2 82 8 5 7 11 -2 22 -10 12 -12 42 -8 121 4 58 8 109 11 113 5 8 19
164 18 194 -1 23 10 29 28 17 13 -8 12 -11 -2 -23 -25 -18 -22 -42 5 -51 12
-4 26 -7 31 -6 4 1 14 -3 21 -9 11 -9 10 -16 -2 -41 -12 -24 -18 -28 -29 -18
-18 15 -18 29 1 29 8 0 15 5 15 10 0 6 -4 10 -9 10 -5 0 -16 3 -25 6 -13 5
-16 -1 -14 -35 1 -23 5 -41 10 -41 4 0 8 5 8 11 0 8 4 8 13 1 6 -6 26 -12 42
-15 29 -4 29 -5 7 -12 -16 -5 -21 -12 -16 -24 3 -9 9 -26 11 -38 3 -14 10 -20
20 -16 11 4 14 1 11 -8 -3 -8 2 -20 9 -27 8 -8 11 -23 8 -36 -5 -16 -4 -18 4
-6 8 12 13 12 36 0 25 -13 28 -13 46 10 15 20 19 22 19 8 0 -23 16 -23 29 -1
5 10 13 14 17 10 5 -5 2 -12 -6 -17 -16 -10 -8 -23 18 -26 9 -1 35 -4 56 -8
53 -8 64 2 27 25 -33 20 -39 36 -17 45 24 9 27 33 6 54 -25 25 -25 46 -1 60
27 14 41 13 41 -5 0 -23 52 -72 82 -79 22 -5 35 0 65 28 30 27 37 40 36 70 -1
40 -1 40 70 -13 26 -19 47 -41 47 -48 0 -7 7 -10 15 -7 8 4 15 1 15 -5 0 -12
-6 -13 -72 -11 -80 3 -53 -16 37 -26 62 -7 85 -6 85 2 0 15 -37 62 -78 98 -55
49 -26 42 41 -10 94 -72 104 -106 51 -184 -24 -35 -31 -70 -15 -70 6 0 13 5
17 11 4 7 21 9 44 5 39 -6 57 9 51 42 -1 8 5 19 14 26 9 7 23 36 31 65 13 51
13 54 -11 85 -14 18 -25 39 -25 47 0 8 -16 32 -35 53 -19 22 -35 47 -35 55 0
9 -10 22 -21 30 -20 12 -21 11 -16 -9 8 -29 -14 -21 -30 12 -17 34 -35 48 -69
53 -202 33 -290 43 -316 38 -28 -5 -30 -4 -23 16 7 24 -2 26 -29 6 -32 -24
-42 -17 -16 10 32 34 22 39 -26 15 -145 -75 -213 -96 -151 -46 15 12 27 32 27
45 0 14 7 25 19 28 11 3 17 11 15 18 -3 7 -1 16 5 20 6 3 8 17 5 31 -5 18 -2
24 10 24 18 0 21 15 6 25 -8 5 -7 11 1 21 6 8 8 14 4 14 -4 0 5 12 20 26 l28
26 -22 17 c-19 14 -21 21 -12 44 9 22 8 27 -4 27 -24 0 -17 29 9 41 24 11 42
68 25 79 -4 3 -6 22 -5 43 3 29 0 37 -10 33 -16 -6 -19 10 -3 19 6 4 16 -1 24
-11 11 -15 15 -16 29 -5 19 16 12 31 -15 31 -12 0 -19 7 -19 20 0 25 9 25 26
3 7 -10 14 -13 14 -6 0 6 7 18 15 27 13 12 13 19 4 34 -15 24 -5 52 20 59 10
2 24 14 31 26 16 29 79 81 87 73 4 -3 -9 -22 -27 -41 -43 -44 -28 -46 17 -3
18 18 33 27 33 20 0 -17 17 -15 24 4 3 8 2 12 -3 9 -5 -3 -13 0 -17 6 -10 16
16 29 51 24 44 -6 112 -21 180 -40 70 -20 163 -15 201 10 14 9 35 18 46 20 11
3 28 11 38 20 9 8 21 15 27 15 6 0 16 7 24 16 7 9 39 29 72 45 52 27 62 29 93
19 18 -6 38 -9 43 -6 20 13 20 -13 1 -27 -17 -12 -18 -16 -6 -20 13 -5 55 41
47 52 -3 5 21 21 32 21 4 0 7 -5 7 -12z m-455 -117 c-6 -5 -21 -12 -35 -15
-24 -7 -24 -6 -6 8 21 17 57 23 41 7z m-520 -70 c-3 -6 -13 -11 -21 -11 -8 0
-14 -4 -14 -10 0 -5 -4 -10 -10 -10 -18 0 -10 15 17 32 29 17 40 17 28 -1z
m-115 -131 c0 -5 -5 -10 -11 -10 -5 0 -7 5 -4 10 3 6 8 10 11 10 2 0 4 -4 4
-10z m-35 -140 c3 -5 -1 -10 -9 -10 -9 0 -16 5 -16 10 0 6 4 10 9 10 6 0 13
-4 16 -10z m15 -70 c0 -5 -4 -10 -10 -10 -5 0 -10 5 -10 10 0 6 5 10 10 10 6
0 10 -4 10 -10z m-10 -152 c0 -13 -23 -5 -28 10 -2 7 2 10 12 6 9 -3 16 -11
16 -16z m1894 -53 c-4 -8 -8 -15 -10 -15 -2 0 -4 7 -4 15 0 8 4 15 10 15 5 0
7 -7 4 -15z m-2054 -280 c-7 -9 -15 -13 -17 -11 -7 7 7 26 19 26 6 0 6 -6 -2
-15z m-16 -59 c-16 -13 -31 -22 -34 -19 -3 3 8 15 25 28 38 31 46 23 9 -9z
m439 -23 c78 -10 66 -24 -20 -22 -43 2 -97 -1 -120 -5 -29 -5 -43 -4 -43 3 0
6 -5 11 -11 11 -6 0 -9 -6 -6 -13 4 -10 -12 -16 -54 -23 -32 -6 -59 -7 -59 -3
0 4 -3 15 -6 23 -5 14 -2 15 22 6 20 -8 30 -8 32 -1 2 6 10 11 18 11 8 0 14 5
14 11 0 8 21 9 70 4 52 -5 70 -4 70 5 0 8 8 10 23 6 12 -4 44 -9 70 -13z
m-325 -81 c3 -9 -3 -13 -19 -10 -12 1 -24 9 -27 16 -3 9 3 13 19 10 12 -1 24
-9 27 -16z m47 -2 c3 -5 -1 -10 -10 -10 -9 0 -13 5 -10 10 3 6 8 10 10 10 2 0
7 -4 10 -10z m269 -21 c-3 -5 -10 -7 -15 -3 -5 3 -7 10 -3 15 3 5 10 7 15 3 5
-3 7 -10 3 -15z m56 -4 c0 -8 -4 -15 -10 -15 -5 0 -10 7 -10 15 0 8 5 15 10
15 6 0 10 -7 10 -15z m-513 -957 c-3 -8 -6 -5 -6 6 -1 11 2 17 5 13 3 -3 4
-12 1 -19z m50 0 c-3 -8 -6 -5 -6 6 -1 11 2 17 5 13 3 -3 4 -12 1 -19z m1927
-72 c-6 -15 -24 -23 -24 -11 0 8 24 34 28 30 1 -1 0 -10 -4 -19z m-1949 -6
c10 -11 14 -20 9 -20 -5 0 -15 9 -22 20 -7 11 -11 20 -9 20 2 0 12 -9 22 -20z
m154 -74 c-19 -33 -39 -40 -39 -13 0 11 52 58 58 52 2 -1 -7 -19 -19 -39z m81
-16 c0 -5 -9 -14 -20 -20 -15 -8 -20 -8 -20 3 0 8 3 17 7 20 10 10 33 8 33 -3z
m-63 -40 c-6 -16 -15 -30 -19 -30 -5 0 -4 37 1 58 1 1 7 2 15 2 12 0 12 -5 3
-30z m23 -85 c-7 -9 -15 -13 -17 -11 -7 7 7 26 19 26 6 0 6 -6 -2 -15z m1580
-255 c0 -5 -5 -10 -11 -10 -5 0 -7 5 -4 10 3 6 8 10 11 10 2 0 4 -4 4 -10z
m-220 -20 c0 -5 -4 -10 -10 -10 -5 0 -10 5 -10 10 0 6 5 10 10 10 6 0 10 -4
10 -10z m218 -42 c0 -24 -4 -48 -9 -54 -6 -8 -4 -14 6 -18 13 -5 14 -16 9 -58
-4 -29 -12 -56 -18 -61 -7 -5 -5 -11 7 -18 21 -12 23 -41 2 -33 -8 4 -15 1
-15 -5 0 -6 4 -11 9 -11 16 0 22 -54 12 -98 -9 -44 1 -56 27 -30 9 9 15 8 27
-8 21 -27 18 -36 -7 -29 -13 3 -18 3 -13 -2 24 -19 47 -78 48 -123 2 -30 9
-57 19 -70 10 -11 15 -26 12 -33 -3 -8 3 -20 12 -28 16 -12 17 -12 11 5 -4 10
-2 25 4 32 8 10 8 14 0 14 -6 0 -11 9 -11 20 0 11 4 20 9 20 5 0 9 23 7 50 -2
47 5 62 19 40 3 -6 17 -7 31 -4 14 4 24 2 24 -5 0 -6 -4 -11 -10 -11 -5 0 -10
-5 -10 -11 0 -6 8 -8 19 -4 27 8 41 -21 50 -108 8 -77 -9 -231 -28 -250 -6 -6
-11 -20 -11 -31 0 -68 -161 -265 -300 -368 -49 -36 -206 -113 -260 -128 -25
-6 -54 -16 -64 -22 -11 -6 -67 -23 -125 -39 -146 -40 -379 -50 -556 -24 -174
25 -395 102 -395 137 0 6 -7 7 -16 4 -11 -4 -42 13 -91 49 -59 45 -86 75 -138
155 -35 54 -75 125 -88 157 -37 88 -88 252 -94 304 -5 44 -4 47 27 63 40 20
40 20 40 1 0 -8 4 -15 10 -15 5 0 14 -9 20 -20 9 -16 8 -19 -6 -13 -9 3 -15 2
-13 -3 22 -47 34 -64 46 -64 10 0 11 5 3 19 -7 13 -7 22 0 26 17 10 29 -4 40
-46 12 -42 15 -43 63 -24 13 5 30 -6 68 -44 54 -55 61 -58 78 -37 9 11 8 18
-5 31 -12 12 -14 19 -5 28 16 16 14 57 -4 57 -8 0 -12 6 -9 14 3 7 -2 16 -11
20 -11 4 -15 12 -11 22 4 9 1 23 -5 30 -7 9 -8 14 -1 14 6 0 16 -16 22 -35 8
-24 18 -35 32 -35 19 0 19 0 -1 26 -26 34 -27 54 -1 54 25 0 25 5 1 31 -11 12
-24 18 -30 14 -19 -11 -12 40 9 63 12 13 17 27 13 38 -5 13 -2 16 8 12 9 -4
21 2 28 14 11 18 10 19 -11 12 -20 -6 -21 -5 -9 10 7 9 10 16 5 16 -5 0 -1 7
10 15 18 13 18 16 2 49 -21 44 -20 49 4 43 17 -4 18 -2 9 14 -5 11 -8 28 -4
38 3 11 -4 26 -19 40 -14 13 -22 29 -19 37 7 19 23 18 23 -1 0 -8 5 -15 11
-15 7 0 36 -16 66 -36 52 -35 55 -35 74 -18 10 9 22 14 25 11 4 -4 -4 -15 -17
-26 l-24 -20 45 -41 c25 -23 57 -53 73 -67 15 -14 33 -35 39 -47 10 -19 10
-20 -6 -7 -22 18 -31 8 -16 -19 18 -34 4 -34 -20 0 -12 17 -24 29 -27 27 -5
-6 14 -42 36 -70 8 -9 11 -20 8 -24 -4 -3 -1 -16 6 -27 8 -12 17 -34 21 -51 4
-16 19 -42 33 -57 15 -16 22 -31 17 -39 -5 -9 -2 -10 9 -6 22 8 22 -9 0 -22
-20 -11 -21 -10 27 -38 52 -30 87 -36 94 -17 4 9 2 22 -4 29 -14 17 6 31 23
17 7 -5 27 -13 45 -17 18 -3 30 -10 28 -13 -2 -4 3 -16 11 -27 15 -20 15 -20
8 3 -6 21 8 31 19 13 8 -12 76 -12 76 0 0 5 11 15 25 21 35 16 31 24 -10 24
-21 0 -43 8 -57 21 -13 11 -31 23 -40 26 -14 5 -16 1 -13 -24 3 -22 0 -29 -13
-28 -21 1 -61 17 -44 18 6 1 12 6 12 12 0 6 -8 8 -19 4 -18 -5 -30 8 -78 89
-7 11 -21 24 -32 28 -12 4 -21 11 -21 16 0 15 80 1 115 -19 18 -11 40 -17 49
-13 9 3 16 1 16 -5 0 -6 6 -11 12 -11 19 0 -36 51 -58 54 -11 2 -18 10 -16 19
1 8 -3 19 -9 23 -9 5 -10 2 -6 -9 4 -10 1 -17 -6 -17 -7 0 -28 25 -46 55 -18
30 -37 55 -42 55 -14 0 -10 24 7 46 13 16 15 16 10 2 -4 -12 0 -18 12 -19 9 0
29 -2 44 -3 24 -1 25 0 13 14 -12 13 -10 15 16 15 16 0 29 -5 29 -11 0 -18
113 -25 126 -8 14 18 28 18 21 1 -6 -16 44 -16 83 0 14 6 50 16 80 24 30 7 70
21 88 31 34 19 60 25 30 7 -20 -11 -24 -29 -7 -29 6 0 23 9 37 21 16 12 28 16
30 10 6 -19 25 -12 61 22 21 20 32 25 28 15 -8 -22 11 -24 19 -3 4 8 13 15 20
15 8 0 19 11 26 25 9 19 14 22 29 15 14 -8 19 -6 24 10 3 11 18 29 33 40 21
17 23 23 12 30 -10 6 -7 10 16 16 38 9 56 24 50 41 -3 8 -2 12 3 8 5 -3 32 9
60 26 40 25 49 35 40 45 -9 11 -6 14 15 14 23 0 26 4 26 35 0 19 4 35 9 35 6
0 10 -19 9 -42z m-98 -52 c0 -3 -4 -8 -10 -11 -5 -3 -10 -1 -10 4 0 6 5 11 10
11 6 0 10 -2 10 -4z m-1420 -47 c0 -5 -4 -9 -10 -9 -5 0 -10 7 -10 16 0 8 5
12 10 9 6 -3 10 -10 10 -16z m54 -5 c5 -14 4 -15 -9 -4 -17 14 -19 20 -6 20 5
0 12 -7 15 -16z m70 -110 c9 -24 7 -27 -9 -10 -17 17 -19 26 -6 26 5 0 12 -7
15 -16z m-135 -8 c10 -12 8 -13 -8 -9 -12 3 -18 9 -15 14 7 12 10 11 23 -5z
m181 4 c0 -5 -5 -10 -11 -10 -5 0 -7 5 -4 10 3 6 8 10 11 10 2 0 4 -4 4 -10z
m40 -65 c0 -8 -4 -15 -10 -15 -5 0 -10 7 -10 15 0 8 5 15 10 15 6 0 10 -7 10
-15z m65 -43 c-8 -8 -25 10 -25 26 0 13 2 13 14 -4 8 -10 13 -21 11 -22z
m-265 -42 c0 -5 -2 -10 -4 -10 -3 0 -8 5 -11 10 -3 6 -1 10 4 10 6 0 11 -4 11
-10z m-131 -44 c-15 -15 -185 -124 -188 -120 -5 5 -10 1 83 68 43 31 86 56 94
56 9 0 13 -2 11 -4z m471 -86 c0 -5 -4 -10 -10 -10 -5 0 -10 5 -10 10 0 6 5
10 10 10 6 0 10 -4 10 -10z m85 -249 c-3 -6 3 -14 12 -20 10 -5 14 -13 10 -18
-10 -9 -39 26 -31 38 3 5 7 9 10 9 3 0 3 -4 -1 -9z"/>
<path d="M3040 4865 c-13 -14 -19 -25 -13 -25 6 0 13 7 17 15 3 8 12 15 21 15
8 0 15 5 15 10 0 17 -15 11 -40 -15z"/>
<path d="M3110 4879 c0 -5 5 -7 10 -4 6 3 10 8 10 11 0 2 -4 4 -10 4 -5 0 -10
-5 -10 -11z"/>
<path d="M3105 4830 c-3 -5 1 -10 9 -10 9 0 16 5 16 10 0 6 -4 10 -9 10 -6 0
-13 -4 -16 -10z"/>
<path d="M2235 4640 c-3 -5 -1 -10 4 -10 6 0 11 5 11 10 0 6 -2 10 -4 10 -3 0
-8 -4 -11 -10z"/>
<path d="M2187 4473 c-10 -9 -9 -23 2 -23 5 0 11 7 15 15 5 15 -5 20 -17 8z"/>
<path d="M2210 4420 c0 -5 5 -10 11 -10 5 0 7 5 4 10 -3 6 -8 10 -11 10 -2 0
-4 -4 -4 -10z"/>
<path d="M2156 4344 c-9 -22 -8 -23 13 -17 27 7 36 33 12 33 -10 0 -22 -7 -25
-16z"/>
<path d="M2157 4303 c-4 -3 -7 -11 -7 -17 0 -6 5 -5 12 2 6 6 9 14 7 17 -3 3
-9 2 -12 -2z"/>
<path d="M2156 4173 c-6 -14 -5 -15 5 -6 7 7 10 15 7 18 -3 3 -9 -2 -12 -12z"/>
<path d="M2120 4140 c0 -5 5 -10 10 -10 6 0 10 5 10 10 0 6 -4 10 -10 10 -5 0
-10 -4 -10 -10z"/>
<path d="M2105 4090 c-3 -5 -1 -10 4 -10 6 0 11 5 11 10 0 6 -2 10 -4 10 -3 0
-8 -4 -11 -10z"/>
<path d="M3437 3918 c-9 -5 -55 -10 -102 -12 -61 -3 -93 -9 -113 -22 -15 -10
-30 -17 -34 -16 -5 1 -8 -9 -8 -23 0 -14 -4 -25 -10 -25 -5 0 -10 -7 -10 -15
0 -8 -4 -15 -10 -15 -5 0 -9 -10 -7 -22 1 -13 -6 -26 -18 -32 -11 -6 -20 -15
-21 -21 0 -5 -7 -26 -16 -45 -13 -30 -16 -72 -9 -148 1 -7 6 -10 11 -7 6 4 8
15 5 24 -3 11 3 25 15 36 11 10 20 23 20 29 0 13 46 36 55 28 3 -3 5 -22 5
-43 l0 -39 48 6 c75 8 93 14 86 25 -3 6 -23 10 -43 8 -50 -3 -61 -1 -61 11 0
6 9 10 20 10 11 0 20 4 20 9 0 12 91 81 107 81 10 0 12 -6 8 -20 -13 -41 47
-110 96 -110 25 0 89 61 89 84 0 25 15 19 49 -19 20 -23 28 -41 24 -52 -6 -15
-7 -15 -12 0 -4 11 -11 13 -20 8 -8 -5 -10 -14 -6 -21 6 -10 0 -12 -26 -6 -26
5 -31 4 -21 -6 7 -7 32 -13 56 -14 24 -1 49 -5 55 -8 6 -4 16 -4 21 -1 6 4 30
-5 55 -19 53 -31 58 -32 50 -5 -5 16 -4 19 5 14 15 -9 30 12 30 42 0 16 -4 21
-15 17 -10 -4 -15 0 -15 14 0 28 -111 111 -176 133 -29 10 -94 22 -145 29 -51
6 -95 13 -97 15 -2 2 16 9 39 15 24 6 54 14 67 18 36 11 245 -17 255 -35 5 -8
16 -11 27 -8 10 3 21 1 25 -5 3 -5 -1 -10 -9 -10 -9 0 -16 -4 -16 -10 0 -5 6
-10 13 -10 7 0 26 -13 42 -30 16 -16 33 -30 39 -30 6 0 5 5 -2 12 -19 19 -14
30 8 18 21 -11 40 -6 40 11 0 5 -8 9 -17 9 -9 0 -13 3 -10 6 4 4 -8 25 -25 48
l-32 41 32 -29 c17 -16 34 -27 37 -24 3 3 -1 11 -10 18 -8 7 -15 16 -15 21 0
17 -41 50 -93 75 -28 13 -65 32 -80 40 -37 20 -49 8 -17 -16 24 -19 24 -20 4
-20 -12 0 -32 9 -45 19 -28 21 -164 35 -192 19z m305 -63 c16 -14 25 -25 19
-25 -12 0 -69 49 -57 50 4 0 21 -11 38 -25z m-520 -47 c-7 -7 -12 -8 -12 -2 0
6 3 14 7 17 3 4 9 5 12 2 2 -3 -1 -11 -7 -17z m370 -97 c34 -16 77 -44 93 -62
24 -27 25 -30 5 -13 -41 34 -101 66 -160 85 -40 12 -48 17 -28 18 14 1 55 -12
90 -28z m-232 15 c0 -2 -9 -6 -20 -9 -11 -3 -18 -1 -14 4 5 9 34 13 34 5z m90
-46 c0 -5 -7 -10 -15 -10 -8 0 -15 5 -15 10 0 6 7 10 15 10 8 0 15 -4 15 -10z
m50 -5 c0 -8 -4 -15 -10 -15 -5 0 -10 7 -10 15 0 8 5 15 10 15 6 0 10 -7 10
-15z"/>
<path d="M2445 3600 c-3 -5 1 -10 9 -10 9 0 16 5 16 10 0 6 -4 10 -9 10 -6 0
-13 -4 -16 -10z"/>
<path d="M2290 3585 c0 -8 7 -15 15 -15 8 0 15 7 15 15 0 8 -7 15 -15 15 -8 0
-15 -7 -15 -15z"/>
<path d="M2332 3578 c6 -17 47 -23 61 -9 15 15 0 26 -17 12 -10 -8 -16 -9 -21
-1 -9 14 -28 13 -23 -2z"/>
<path d="M3348 3573 c7 -3 16 -2 19 1 4 3 -2 6 -13 5 -11 0 -14 -3 -6 -6z"/>
<path d="M1960 3546 c0 -9 5 -16 10 -16 6 0 10 4 10 9 0 6 -4 13 -10 16 -5 3
-10 -1 -10 -9z"/>
<path d="M2475 3537 c-22 -12 -42 -23 -44 -24 -2 -2 -2 -5 1 -8 11 -11 107 17
124 36 17 18 16 19 -12 19 -16 0 -47 -10 -69 -23z"/>
<path d="M3500 3549 c0 -5 5 -7 10 -4 6 3 10 8 10 11 0 2 -4 4 -10 4 -5 0 -10
-5 -10 -11z"/>
<path d="M3305 3530 c-4 -7 -18 -9 -30 -6 -43 11 -37 -14 7 -34 85 -37 159
-49 258 -41 43 4 -4 17 -60 16 -28 0 -50 3 -50 8 0 4 -7 7 -15 7 -9 0 -26 11
-38 24 -26 29 -62 41 -72 26z"/>
<path d="M3580 3460 c0 -5 5 -10 11 -10 5 0 7 5 4 10 -3 6 -8 10 -11 10 -2 0
-4 -4 -4 -10z"/>
<path d="M2736 3181 c-4 -7 -5 -15 -2 -18 9 -9 19 4 14 18 -4 11 -6 11 -12 0z"/>
<path d="M2616 3144 c-19 -20 -47 -56 -61 -80 l-25 -42 23 -27 c36 -44 60 -68
95 -95 31 -23 32 -27 20 -52 -13 -27 -35 -33 -51 -13 -6 6 -10 6 -14 -2 -2 -7
-11 -13 -18 -13 -7 0 -15 6 -18 13 -3 8 -11 5 -26 -10 -12 -13 -30 -23 -40
-23 -10 0 -38 -18 -63 -39 -24 -22 -53 -39 -64 -38 -13 2 -20 -5 -22 -23 -2
-14 -12 -34 -22 -45 -9 -11 -21 -38 -25 -59 -6 -36 -5 -38 9 -26 22 17 25 11
14 -29 -8 -27 -12 -32 -20 -20 -8 12 -9 12 -5 -1 2 -8 12 -17 23 -19 10 -2 22
-8 26 -14 10 -17 38 12 38 39 0 16 10 28 30 39 43 22 51 20 98 -35 45 -52 70
-66 184 -104 61 -20 67 -21 71 -5 3 10 -7 26 -24 40 -32 26 -38 49 -13 49 11
0 14 6 9 20 -6 18 -2 20 34 20 50 0 71 -8 71 -27 0 -12 3 -13 14 -4 16 13 235
19 255 7 6 -4 11 -13 10 -19 0 -9 -2 -9 -6 1 -7 17 -23 15 -23 -3 0 -24 -41
-75 -60 -75 -25 0 -31 -11 -16 -26 10 -10 22 -11 47 -4 19 6 48 10 66 10 17 0
35 5 38 10 3 6 14 10 23 10 22 0 70 45 82 75 9 23 62 42 68 24 2 -5 12 -9 21
-9 10 0 24 -11 31 -25 7 -14 20 -25 27 -25 11 0 11 5 3 20 -9 16 -8 20 5 20 9
0 15 9 15 21 0 18 2 19 15 9 10 -9 15 -9 15 -1 0 6 -5 11 -10 11 -14 0 -50 85
-50 116 0 14 -7 27 -17 31 -10 3 -26 13 -35 21 -16 14 -18 13 -18 -3 0 -16 -3
-16 -27 7 -21 19 -33 24 -48 18 -31 -13 -35 -12 -35 10 0 11 -5 20 -11 20 -7
0 -9 -10 -5 -24 3 -14 2 -28 -4 -31 -5 -3 -10 1 -10 9 0 9 -4 16 -10 16 -5 0
-10 7 -10 15 0 8 -6 15 -14 15 -8 0 -16 5 -18 11 -2 6 -17 12 -34 13 -17 2
-35 6 -41 9 -17 11 -22 -3 -16 -49 3 -29 1 -44 -6 -44 -8 0 -7 -6 1 -20 8 -12
19 -18 30 -14 10 3 18 0 18 -6 0 -7 8 -9 20 -5 11 4 20 2 20 -4 0 -6 11 -11
25 -11 14 0 25 -4 25 -9 0 -6 12 -9 28 -8 21 2 26 -2 24 -15 -2 -10 2 -18 8
-18 5 0 10 5 10 12 0 6 2 9 5 6 3 -3 3 -12 -1 -21 -7 -19 -23 -17 -114 13 -32
10 -72 16 -95 13 -122 -13 -203 -15 -209 -4 -4 6 -16 11 -27 11 -11 0 -32 6
-47 14 -21 10 -41 11 -87 4 -87 -13 -98 -15 -120 -23 -15 -6 -12 0 10 22 17
16 33 28 38 25 4 -2 20 3 36 11 15 8 43 13 62 12 19 -2 40 2 47 8 9 7 16 7 24
-1 19 -19 28 -14 28 18 0 17 4 30 9 30 5 0 8 11 7 25 -1 18 -5 23 -18 19 -14
-4 -16 0 -11 29 4 29 0 39 -23 61 -19 17 -24 26 -14 26 20 -1 50 -24 50 -39 0
-7 4 -9 10 -6 5 3 8 0 5 -7 -7 -20 6 -34 46 -47 42 -13 89 -1 89 24 0 17 -43
37 -63 29 -8 -3 -31 14 -53 38 -21 24 -42 42 -46 41 -4 -2 -5 3 -3 10 3 6 -4
18 -15 25 -17 10 -20 10 -20 -3 0 -12 -14 -15 -66 -15 -89 0 -124 19 -124 68
0 25 48 101 65 102 13 1 55 36 55 45 0 4 -6 3 -13 -4 -10 -7 -17 -7 -24 0 -7
7 -21 -1 -47 -27z m94 -289 c11 -13 10 -14 -4 -9 -9 3 -16 10 -16 15 0 13 6
11 20 -6z m-365 -224 c3 -5 1 -12 -5 -16 -5 -3 -10 1 -10 9 0 18 6 21 15 7z"/>
<path d="M3019 2919 c-35 -38 -32 -46 10 -25 36 19 77 21 84 4 4 -10 8 -10 15
1 6 9 17 11 28 6 18 -7 18 -8 -2 -15 -12 -5 -25 -14 -29 -20 -4 -6 -15 -8 -26
-5 -13 4 -19 2 -19 -9 0 -11 9 -16 30 -16 23 0 42 11 75 46 25 25 45 49 45 52
0 4 -41 8 -91 10 -90 3 -90 3 -120 -29z"/>
<path d="M1995 2879 c-11 -17 1 -21 15 -4 8 9 8 15 2 15 -6 0 -14 -5 -17 -11z"/>
<path d="M2055 2770 c-3 -5 -1 -10 4 -10 6 0 11 5 11 10 0 6 -2 10 -4 10 -3 0
-8 -4 -11 -10z"/>
<path d="M3014 2765 c3 -9 0 -25 -6 -35 -16 -24 4 -52 23 -33 14 14 3 83 -13
83 -5 0 -7 -7 -4 -15z"/>
<path d="M2390 2755 c-20 -24 -6 -28 15 -5 10 11 13 20 8 20 -6 0 -16 -7 -23
-15z"/>
<path d="M2030 2740 c0 -5 4 -10 9 -10 6 0 13 5 16 10 3 6 -1 10 -9 10 -9 0
-16 -4 -16 -10z"/>
<path d="M2111 2714 c0 -11 3 -14 6 -6 3 7 2 16 -1 19 -3 4 -6 -2 -5 -13z"/>
<path d="M2220 2710 c0 -5 5 -10 11 -10 5 0 7 5 4 10 -3 6 -8 10 -11 10 -2 0
-4 -4 -4 -10z"/>
<path d="M2077 2703 c-13 -12 -7 -43 8 -43 8 0 15 6 15 13 0 18 -15 38 -23 30z"/>
<path d="M3436 2655 c3 -11 14 -31 24 -45 15 -19 20 -21 20 -8 0 9 -11 30 -24
45 -20 23 -24 24 -20 8z"/>
<path d="M3730 2600 c0 -5 5 -10 11 -10 5 0 7 5 4 10 -3 6 -8 10 -11 10 -2 0
-4 -4 -4 -10z"/>
<path d="M3610 2546 c0 -9 5 -16 10 -16 6 0 10 4 10 9 0 6 -4 13 -10 16 -5 3
-10 -1 -10 -9z"/>
<path d="M2262 2524 c4 -21 22 -23 26 -1 2 10 -3 17 -13 17 -10 0 -15 -6 -13
-16z"/>
<path d="M3685 2480 c3 -5 8 -10 11 -10 2 0 4 5 4 10 0 6 -5 10 -11 10 -5 0
-7 -4 -4 -10z"/>
<path d="M2485 2470 c-3 -5 -1 -10 4 -10 6 0 11 5 11 10 0 6 -2 10 -4 10 -3 0
-8 -4 -11 -10z"/>
<path d="M2340 2450 c0 -5 5 -10 10 -10 6 0 10 5 10 10 0 6 -4 10 -10 10 -5 0
-10 -4 -10 -10z"/>
<path d="M2787 2425 c-7 -18 8 -29 26 -19 9 6 9 4 -1 -8 -8 -10 -9 -19 -3 -22
5 -4 14 2 20 11 13 24 25 10 13 -14 -8 -14 -23 -19 -63 -21 -51 -2 -69 -12
-69 -40 0 -10 5 -10 21 -1 20 10 21 9 15 -17 -6 -23 -5 -27 5 -16 19 18 31 15
24 -8 -5 -16 -3 -19 12 -13 10 3 26 13 36 21 15 14 17 13 17 -1 0 -10 3 -17 7
-17 3 0 15 7 25 17 17 15 18 15 18 0 0 -21 0 -21 38 -1 18 8 42 14 55 12 23
-3 65 27 54 39 -3 3 -19 6 -34 8 -15 1 -35 5 -43 8 -8 4 -32 8 -52 10 -49 5
-54 11 -33 43 15 24 15 26 2 21 -9 -3 -19 -2 -22 3 -3 5 -12 7 -19 4 -8 -3
-17 -1 -21 5 -9 15 -22 14 -28 -4z"/>
<path d="M2950 2403 c-24 -12 -24 -13 -3 -13 12 0 25 5 28 11 11 16 2 17 -25
2z"/>
<path d="M2320 2399 c0 -5 5 -7 10 -4 6 3 10 8 10 11 0 2 -4 4 -10 4 -5 0 -10
-5 -10 -11z"/>
<path d="M2990 2380 c0 -5 7 -10 16 -10 8 0 12 5 9 10 -3 6 -10 10 -16 10 -5
0 -9 -4 -9 -10z"/>
<path d="M3496 2251 c-4 -7 -5 -15 -2 -18 9 -9 19 4 14 18 -4 11 -6 11 -12 0z"/>
<path d="M2245 1860 c3 -5 10 -10 16 -10 5 0 9 5 9 10 0 6 -7 10 -16 10 -8 0
-12 -4 -9 -10z"/>
<path d="M3300 1785 c-7 -9 -11 -18 -8 -20 3 -3 11 1 18 10 7 9 11 18 8 20 -3
3 -11 -1 -18 -10z"/>
<path d="M2235 1720 c3 -5 10 -10 16 -10 5 0 9 5 9 10 0 6 -7 10 -16 10 -8 0
-12 -4 -9 -10z"/>
<path d="M2290 1710 c0 -5 5 -10 10 -10 6 0 10 5 10 10 0 6 -4 10 -10 10 -5 0
-10 -4 -10 -10z"/>
<path d="M2080 1331 c0 -5 5 -13 10 -16 6 -3 10 -2 10 4 0 5 -4 13 -10 16 -5
3 -10 2 -10 -4z"/>
<path d="M2607 1324 c3 -8 14 -19 25 -25 17 -9 18 -8 6 10 -15 25 -39 36 -31
15z"/>
<path d="M2206 1273 c-11 -11 -6 -23 9 -23 8 0 15 4 15 9 0 13 -16 22 -24 14z"/>
<path d="M2610 1260 c0 -5 7 -10 15 -10 8 0 15 5 15 10 0 6 -7 10 -15 10 -8 0
-15 -4 -15 -10z"/>
<path d="M2020 1010 c0 -5 7 -10 15 -10 8 0 15 5 15 10 0 6 -7 10 -15 10 -8 0
-15 -4 -15 -10z"/>
<path d="M1610 3770 c-23 -44 -39 -243 -20 -255 6 -3 10 -18 10 -33 0 -27 34
-60 44 -43 3 5 0 40 -8 78 -10 55 -11 82 -1 128 12 63 28 78 50 49 28 -39 24
-4 -5 39 -35 53 -56 64 -70 37z"/>
<path d="M4255 3672 c-11 -2 -26 -11 -32 -20 -11 -13 -9 -17 10 -26 37 -19 37
-49 3 -271 l-7 -40 14 35 c7 19 19 34 26 32 8 -2 11 3 8 12 -4 9 0 28 8 43 18
34 19 188 2 218 -8 13 -20 19 -32 17z"/>
<path d="M1627 3328 c3 -86 23 -241 30 -235 7 7 -17 311 -25 319 -6 6 -8 -26
-5 -84z"/>
<path d="M4234 3284 c-8 -20 -14 -43 -12 -52 2 -9 10 8 20 36 19 60 14 69 -8
16z"/>
<path d="M1670 3231 c0 -5 5 -13 10 -16 6 -3 10 -2 10 4 0 5 -4 13 -10 16 -5
3 -10 2 -10 -4z"/>
<path d="M4103 3194 c-33 -22 -34 -34 -3 -34 21 0 43 24 38 43 -2 10 -11 8
-35 -9z"/>
<path d="M4177 3104 c-8 -8 1 -24 14 -24 5 0 9 7 9 15 0 15 -12 20 -23 9z"/>
<path d="M1670 2992 c0 -17 4 -34 10 -37 6 -4 7 6 3 27 -8 44 -13 48 -13 10z"/>
</g>
</svg>
